<mxfile host="app.diagrams.net" modified="2024-06-15T21:21:10.810Z" agent="Mozilla/5.0 (X11; Linux x86_64) AppleWebKit/537.36 (KHTML, like Gecko) Chrome/125.0.0.0 Safari/537.36" etag="QW_7ZmeZ6d92fFTeTauD" version="24.5.4" type="device">
  <diagram id="C5RBs43oDa-KdzZeNtuy" name="Page-1">
    <mxGraphModel dx="945" dy="547" grid="1" gridSize="10" guides="1" tooltips="1" connect="1" arrows="1" fold="1" page="1" pageScale="1" pageWidth="827" pageHeight="1169" math="0" shadow="0">
      <root>
        <mxCell id="WIyWlLk6GJQsqaUBKTNV-0" />
        <mxCell id="WIyWlLk6GJQsqaUBKTNV-1" parent="WIyWlLk6GJQsqaUBKTNV-0" />
        <mxCell id="PE4frOkEF5mZ2g-NdxQr-0" value="GPS位置資訊" style="shape=parallelogram;html=1;strokeWidth=2;perimeter=parallelogramPerimeter;whiteSpace=wrap;rounded=1;arcSize=12;size=0.23;" vertex="1" parent="WIyWlLk6GJQsqaUBKTNV-1">
          <mxGeometry x="95" y="450" width="170" height="40" as="geometry" />
        </mxCell>
        <mxCell id="PE4frOkEF5mZ2g-NdxQr-35" value="" style="edgeStyle=orthogonalEdgeStyle;rounded=0;orthogonalLoop=1;jettySize=auto;html=1;" edge="1" parent="WIyWlLk6GJQsqaUBKTNV-1" source="PE4frOkEF5mZ2g-NdxQr-1" target="PE4frOkEF5mZ2g-NdxQr-6">
          <mxGeometry relative="1" as="geometry" />
        </mxCell>
        <mxCell id="PE4frOkEF5mZ2g-NdxQr-37" value="（－）" style="edgeLabel;html=1;align=center;verticalAlign=middle;resizable=0;points=[];" vertex="1" connectable="0" parent="PE4frOkEF5mZ2g-NdxQr-35">
          <mxGeometry x="0.5224" y="2" relative="1" as="geometry">
            <mxPoint x="-2" y="-16" as="offset" />
          </mxGeometry>
        </mxCell>
        <mxCell id="PE4frOkEF5mZ2g-NdxQr-1" value="Waypoint位置資訊" style="shape=parallelogram;html=1;strokeWidth=2;perimeter=parallelogramPerimeter;whiteSpace=wrap;rounded=1;arcSize=12;size=0.23;" vertex="1" parent="WIyWlLk6GJQsqaUBKTNV-1">
          <mxGeometry x="100" y="240" width="160" height="40" as="geometry" />
        </mxCell>
        <mxCell id="PE4frOkEF5mZ2g-NdxQr-33" value="" style="edgeStyle=orthogonalEdgeStyle;rounded=0;orthogonalLoop=1;jettySize=auto;html=1;" edge="1" parent="WIyWlLk6GJQsqaUBKTNV-1" source="PE4frOkEF5mZ2g-NdxQr-2" target="PE4frOkEF5mZ2g-NdxQr-0">
          <mxGeometry relative="1" as="geometry" />
        </mxCell>
        <mxCell id="PE4frOkEF5mZ2g-NdxQr-2" value="pose_callback&lt;div&gt;(mavros/local_position_psoe)&lt;/div&gt;" style="rounded=1;whiteSpace=wrap;html=1;absoluteArcSize=1;arcSize=14;strokeWidth=2;" vertex="1" parent="WIyWlLk6GJQsqaUBKTNV-1">
          <mxGeometry x="450" y="450" width="170" height="40" as="geometry" />
        </mxCell>
        <mxCell id="PE4frOkEF5mZ2g-NdxQr-5" value="" style="edgeStyle=orthogonalEdgeStyle;rounded=0;orthogonalLoop=1;jettySize=auto;html=1;" edge="1" parent="WIyWlLk6GJQsqaUBKTNV-1" source="PE4frOkEF5mZ2g-NdxQr-3" target="PE4frOkEF5mZ2g-NdxQr-1">
          <mxGeometry relative="1" as="geometry" />
        </mxCell>
        <mxCell id="PE4frOkEF5mZ2g-NdxQr-3" value="read_waypoint" style="rounded=1;whiteSpace=wrap;html=1;absoluteArcSize=1;arcSize=14;strokeWidth=2;" vertex="1" parent="WIyWlLk6GJQsqaUBKTNV-1">
          <mxGeometry x="130" y="180" width="100" height="40" as="geometry" />
        </mxCell>
        <mxCell id="PE4frOkEF5mZ2g-NdxQr-18" style="edgeStyle=orthogonalEdgeStyle;rounded=0;orthogonalLoop=1;jettySize=auto;html=1;entryX=0;entryY=0.5;entryDx=0;entryDy=0;" edge="1" parent="WIyWlLk6GJQsqaUBKTNV-1" source="PE4frOkEF5mZ2g-NdxQr-6" target="PE4frOkEF5mZ2g-NdxQr-14">
          <mxGeometry relative="1" as="geometry" />
        </mxCell>
        <mxCell id="PE4frOkEF5mZ2g-NdxQr-19" style="edgeStyle=orthogonalEdgeStyle;rounded=0;orthogonalLoop=1;jettySize=auto;html=1;" edge="1" parent="WIyWlLk6GJQsqaUBKTNV-1" source="PE4frOkEF5mZ2g-NdxQr-6" target="PE4frOkEF5mZ2g-NdxQr-16">
          <mxGeometry relative="1" as="geometry" />
        </mxCell>
        <mxCell id="PE4frOkEF5mZ2g-NdxQr-20" style="edgeStyle=orthogonalEdgeStyle;rounded=0;orthogonalLoop=1;jettySize=auto;html=1;entryX=0;entryY=0.5;entryDx=0;entryDy=0;" edge="1" parent="WIyWlLk6GJQsqaUBKTNV-1" source="PE4frOkEF5mZ2g-NdxQr-6" target="PE4frOkEF5mZ2g-NdxQr-17">
          <mxGeometry relative="1" as="geometry" />
        </mxCell>
        <mxCell id="PE4frOkEF5mZ2g-NdxQr-6" value="" style="verticalLabelPosition=bottom;verticalAlign=top;html=1;shape=mxgraph.flowchart.or;" vertex="1" parent="WIyWlLk6GJQsqaUBKTNV-1">
          <mxGeometry x="160" y="340" width="40" height="40" as="geometry" />
        </mxCell>
        <mxCell id="PE4frOkEF5mZ2g-NdxQr-23" value="" style="edgeStyle=orthogonalEdgeStyle;rounded=0;orthogonalLoop=1;jettySize=auto;html=1;" edge="1" parent="WIyWlLk6GJQsqaUBKTNV-1" source="PE4frOkEF5mZ2g-NdxQr-14" target="PE4frOkEF5mZ2g-NdxQr-22">
          <mxGeometry relative="1" as="geometry" />
        </mxCell>
        <mxCell id="PE4frOkEF5mZ2g-NdxQr-38" value="＋" style="edgeLabel;html=1;align=center;verticalAlign=middle;resizable=0;points=[];" vertex="1" connectable="0" parent="PE4frOkEF5mZ2g-NdxQr-23">
          <mxGeometry x="-0.1531" relative="1" as="geometry">
            <mxPoint x="-18" as="offset" />
          </mxGeometry>
        </mxCell>
        <mxCell id="PE4frOkEF5mZ2g-NdxQr-14" value="P controller" style="rounded=1;whiteSpace=wrap;html=1;absoluteArcSize=1;arcSize=14;strokeWidth=2;" vertex="1" parent="WIyWlLk6GJQsqaUBKTNV-1">
          <mxGeometry x="260" y="290" width="80" height="40" as="geometry" />
        </mxCell>
        <mxCell id="PE4frOkEF5mZ2g-NdxQr-24" value="" style="edgeStyle=orthogonalEdgeStyle;rounded=0;orthogonalLoop=1;jettySize=auto;html=1;" edge="1" parent="WIyWlLk6GJQsqaUBKTNV-1" source="PE4frOkEF5mZ2g-NdxQr-16" target="PE4frOkEF5mZ2g-NdxQr-22">
          <mxGeometry relative="1" as="geometry" />
        </mxCell>
        <mxCell id="PE4frOkEF5mZ2g-NdxQr-39" value="＋" style="edgeLabel;html=1;align=center;verticalAlign=middle;resizable=0;points=[];" vertex="1" connectable="0" parent="PE4frOkEF5mZ2g-NdxQr-24">
          <mxGeometry x="-0.4423" relative="1" as="geometry">
            <mxPoint x="9" as="offset" />
          </mxGeometry>
        </mxCell>
        <mxCell id="PE4frOkEF5mZ2g-NdxQr-16" value="I controller" style="rounded=1;whiteSpace=wrap;html=1;absoluteArcSize=1;arcSize=14;strokeWidth=2;" vertex="1" parent="WIyWlLk6GJQsqaUBKTNV-1">
          <mxGeometry x="260" y="340" width="80" height="40" as="geometry" />
        </mxCell>
        <mxCell id="PE4frOkEF5mZ2g-NdxQr-25" value="" style="edgeStyle=orthogonalEdgeStyle;rounded=0;orthogonalLoop=1;jettySize=auto;html=1;" edge="1" parent="WIyWlLk6GJQsqaUBKTNV-1" source="PE4frOkEF5mZ2g-NdxQr-17" target="PE4frOkEF5mZ2g-NdxQr-22">
          <mxGeometry relative="1" as="geometry" />
        </mxCell>
        <mxCell id="PE4frOkEF5mZ2g-NdxQr-40" value="＋" style="edgeLabel;html=1;align=center;verticalAlign=middle;resizable=0;points=[];" vertex="1" connectable="0" parent="PE4frOkEF5mZ2g-NdxQr-25">
          <mxGeometry x="-0.3166" y="2" relative="1" as="geometry">
            <mxPoint x="-11" y="2" as="offset" />
          </mxGeometry>
        </mxCell>
        <mxCell id="PE4frOkEF5mZ2g-NdxQr-17" value="D controller" style="rounded=1;whiteSpace=wrap;html=1;absoluteArcSize=1;arcSize=14;strokeWidth=2;" vertex="1" parent="WIyWlLk6GJQsqaUBKTNV-1">
          <mxGeometry x="260" y="390" width="80" height="40" as="geometry" />
        </mxCell>
        <mxCell id="PE4frOkEF5mZ2g-NdxQr-27" value="" style="edgeStyle=orthogonalEdgeStyle;rounded=0;orthogonalLoop=1;jettySize=auto;html=1;" edge="1" parent="WIyWlLk6GJQsqaUBKTNV-1" source="PE4frOkEF5mZ2g-NdxQr-22" target="PE4frOkEF5mZ2g-NdxQr-26">
          <mxGeometry relative="1" as="geometry" />
        </mxCell>
        <mxCell id="PE4frOkEF5mZ2g-NdxQr-22" value="" style="verticalLabelPosition=bottom;verticalAlign=top;html=1;shape=mxgraph.flowchart.or;" vertex="1" parent="WIyWlLk6GJQsqaUBKTNV-1">
          <mxGeometry x="380" y="340" width="40" height="40" as="geometry" />
        </mxCell>
        <mxCell id="PE4frOkEF5mZ2g-NdxQr-31" value="" style="edgeStyle=orthogonalEdgeStyle;rounded=0;orthogonalLoop=1;jettySize=auto;html=1;" edge="1" parent="WIyWlLk6GJQsqaUBKTNV-1" source="PE4frOkEF5mZ2g-NdxQr-26" target="PE4frOkEF5mZ2g-NdxQr-29">
          <mxGeometry relative="1" as="geometry" />
        </mxCell>
        <mxCell id="PE4frOkEF5mZ2g-NdxQr-26" value="發布速度命令&lt;span style=&quot;background-color: initial;&quot;&gt;給無人機&lt;/span&gt;&lt;div&gt;（mavrso/setpoint_velocity/cmd_vel）&lt;/div&gt;" style="rounded=1;whiteSpace=wrap;html=1;absoluteArcSize=1;arcSize=14;strokeWidth=2;" vertex="1" parent="WIyWlLk6GJQsqaUBKTNV-1">
          <mxGeometry x="440" y="335" width="210" height="50" as="geometry" />
        </mxCell>
        <mxCell id="PE4frOkEF5mZ2g-NdxQr-32" style="edgeStyle=orthogonalEdgeStyle;rounded=0;orthogonalLoop=1;jettySize=auto;html=1;entryX=1;entryY=0.5;entryDx=0;entryDy=0;exitX=0.5;exitY=1;exitDx=0;exitDy=0;" edge="1" parent="WIyWlLk6GJQsqaUBKTNV-1" source="PE4frOkEF5mZ2g-NdxQr-29" target="PE4frOkEF5mZ2g-NdxQr-2">
          <mxGeometry relative="1" as="geometry" />
        </mxCell>
        <mxCell id="PE4frOkEF5mZ2g-NdxQr-29" value="無人機" style="rounded=1;whiteSpace=wrap;html=1;absoluteArcSize=1;arcSize=14;strokeWidth=2;" vertex="1" parent="WIyWlLk6GJQsqaUBKTNV-1">
          <mxGeometry x="680" y="335" width="83" height="50" as="geometry" />
        </mxCell>
        <mxCell id="PE4frOkEF5mZ2g-NdxQr-34" style="edgeStyle=orthogonalEdgeStyle;rounded=0;orthogonalLoop=1;jettySize=auto;html=1;entryX=0.5;entryY=1;entryDx=0;entryDy=0;entryPerimeter=0;" edge="1" parent="WIyWlLk6GJQsqaUBKTNV-1" source="PE4frOkEF5mZ2g-NdxQr-0" target="PE4frOkEF5mZ2g-NdxQr-6">
          <mxGeometry relative="1" as="geometry" />
        </mxCell>
        <mxCell id="PE4frOkEF5mZ2g-NdxQr-36" value="＋" style="edgeLabel;html=1;align=center;verticalAlign=middle;resizable=0;points=[];" vertex="1" connectable="0" parent="PE4frOkEF5mZ2g-NdxQr-34">
          <mxGeometry x="0.4612" relative="1" as="geometry">
            <mxPoint y="11" as="offset" />
          </mxGeometry>
        </mxCell>
      </root>
    </mxGraphModel>
  </diagram>
</mxfile>
